HIERARCHY
ROOT root
{
	OFFSET 0.000000 0.000000 0.000000
	CHANNELS 6 Xposition Yposition Zposition Zrotation Yrotation Xrotation
	JOINT lhip
	{
		OFFSET 0.058581 -0.082280 -0.017664
		CHANNELS 3 Zrotation Yrotation Xrotation
		JOINT lknee
		{
			OFFSET 0.043451 -0.386469 0.008037
			CHANNELS 3 Zrotation Yrotation Xrotation
			JOINT lankle
			{
				OFFSET -0.014790 -0.426874 -0.037428
				CHANNELS 3 Zrotation Yrotation Xrotation
				JOINT ltoe
				{
					OFFSET 0.041054 -0.060286 0.122042
					CHANNELS 3 Zrotation Yrotation Xrotation
					End Site
					{
						OFFSET 0.000000 0.000000 0.000000
					}
				}
			}
		}
	}
	JOINT rhip
	{
		OFFSET -0.060310 -0.090513 -0.013543
		CHANNELS 3 Zrotation Yrotation Xrotation
		JOINT rknee
		{
			OFFSET -0.043257 -0.383688 -0.004843
			CHANNELS 3 Zrotation Yrotation Xrotation
			JOINT rankle
			{
				OFFSET 0.019056 -0.420046 -0.034562
				CHANNELS 3 Zrotation Yrotation Xrotation
				JOINT rtoe
				{
					OFFSET -0.034840 -0.062106 0.130323
					CHANNELS 3 Zrotation Yrotation Xrotation
					End Site
					{
						OFFSET 0.000000 0.000000 0.000000
					}
				}
			}
		}
	}
	JOINT lowerback
	{
		OFFSET 0.004439 0.124404 -0.038385
		CHANNELS 3 Zrotation Yrotation Xrotation
		JOINT upperback
		{
			OFFSET 0.004488 0.137956 0.026820
			CHANNELS 3 Zrotation Yrotation Xrotation
			JOINT chest
			{
				OFFSET -0.002265 0.056032 0.002855
				CHANNELS 3 Zrotation Yrotation Xrotation
				JOINT lowerneck
				{
					OFFSET -0.013390 0.211636 -0.033468
					CHANNELS 3 Zrotation Yrotation Xrotation
					JOINT upperneck
					{
						OFFSET 0.010113 0.088937 0.050410
						CHANNELS 3 Zrotation Yrotation Xrotation
						End Site
						{
							OFFSET 0.000000 0.000000 0.000000
						}
					}
				}
				JOINT lclavicle
				{
					OFFSET 0.071702 0.114000 -0.018898
					CHANNELS 3 Zrotation Yrotation Xrotation
					JOINT lshoulder
					{
						OFFSET 0.122921 0.045205 -0.019046
						CHANNELS 3 Zrotation Yrotation Xrotation
						JOINT lelbow
						{
							OFFSET 0.255332 -0.015649 -0.022946
							CHANNELS 3 Zrotation Yrotation Xrotation
							JOINT lwrist
							{
								OFFSET 0.265709 0.012698 -0.007375
								CHANNELS 3 Zrotation Yrotation Xrotation
								End Site
								{
									OFFSET 0.000000 0.000000 0.000000
								}
							}
						}
					}
				}
				JOINT rclavicle
				{
					OFFSET -0.082954 0.112472 -0.023707
					CHANNELS 3 Zrotation Yrotation Xrotation
					JOINT rshoulder
					{
						OFFSET -0.113228 0.046853 -0.008472
						CHANNELS 3 Zrotation Yrotation Xrotation
						JOINT relbow
						{
							OFFSET -0.260127 -0.014369 -0.031269
							CHANNELS 3 Zrotation Yrotation Xrotation
							JOINT rwrist
							{
								OFFSET -0.269108 0.006794 -0.006027
								CHANNELS 3 Zrotation Yrotation Xrotation
								End Site
								{
									OFFSET 0.000000 0.000000 0.000000
								}
							}
						}
					}
				}
			}
		}
	}
}
MOTION
Frames: 8
Frame Time: 0.033333
-1.950263 0.650026 0.989188 87.267025 -3.440739 86.953239 1.556209 -3.849261 -11.511498 -9.418468 -2.240759 24.823087 7.657923 14.204914 -10.704952 0.000000 -0.000000 0.000000 -2.222947 -7.587821 5.907707 -3.320879 -2.306711 13.722400 0.682270 -20.560239 -17.928392 0.000000 -0.000000 0.000000 -2.112541 8.486518 5.507666 -0.991170 -2.960502 -0.458184 -0.516616 4.335909 0.773440 -7.407335 2.817968 0.992269 10.077503 -0.870573 -6.261799 9.784139 -17.262266 -20.776619 -3.484609 -29.809376 -22.632031 27.681147 -8.992208 -34.097779 -1.191998 9.490662 14.555788 4.429957 14.596075 -1.457473 37.093666 0.873553 11.072149 -13.351627 29.963185 30.665288 66.786795 -40.137717 4.779505 
-1.963722 0.638922 0.983917 93.089728 -4.209252 86.823949 1.450324 -4.874893 -15.197823 -10.212843 -1.638712 28.348621 7.548826 12.468397 -11.770343 0.000000 -0.000000 0.000000 -1.793130 -10.188359 5.493337 -3.699582 -4.540400 13.995401 0.143630 -21.825635 -20.690655 0.000000 -0.000000 0.000000 -3.256280 10.442608 5.533457 -0.785862 -3.463379 -0.538911 -0.544049 4.214195 1.375105 -7.827282 -0.734032 2.357463 11.534220 -5.735793 -5.029901 10.609287 -18.295233 -20.845619 -4.272971 -34.478904 -22.007180 32.135887 -14.197360 -36.451572 3.960041 8.059362 14.352869 5.785788 15.696773 -1.902444 41.017052 2.178994 10.797704 -16.299739 31.703444 26.569133 70.683105 -39.918968 2.273919 
-1.972932 0.629080 0.979787 97.785388 -4.532405 85.770552 1.134272 -5.000689 -16.610212 -10.303538 -0.258073 30.477623 7.317672 11.289977 -12.933657 0.000000 -0.000000 0.000000 -1.337638 -11.705526 6.063543 -4.043385 -7.094746 14.542014 -0.101686 -22.146911 -22.662299 0.000000 -0.000000 0.000000 -3.303474 11.214968 6.366111 -0.980602 -3.011552 -0.825711 -0.555682 4.270232 1.764019 -8.475155 -4.341967 4.028931 12.073623 -9.443366 -3.465603 10.143843 -18.221738 -20.829905 -7.792668 -38.592372 -19.900680 38.612398 -22.721303 -36.821692 8.523916 6.584087 13.419256 6.980793 16.648929 -1.993607 45.104824 4.046311 10.909375 -17.007985 32.638991 24.973461 66.222742 -40.120963 4.758003 
-1.979549 0.620322 0.976021 101.606837 -3.958832 84.128673 1.047592 -3.930249 -16.113196 -9.498266 0.220872 30.974212 6.198707 9.793533 -14.345240 0.000000 -0.000000 0.000000 -0.270577 -12.504360 7.039667 -4.461434 -10.298538 15.519142 0.141873 -21.054943 -22.912637 0.000000 -0.000000 0.000000 -2.635263 10.906835 7.827688 -1.164211 -2.195226 -0.960879 -0.371168 5.013273 1.785991 -8.645769 -7.318910 5.951052 12.760221 -11.996976 -2.065592 8.694557 -18.299353 -20.863189 -13.853480 -41.644933 -15.864042 47.756604 -32.976727 -35.544718 12.344252 4.990769 14.661225 8.580249 18.407553 -1.244664 48.535297 5.299789 10.562963 -17.331514 33.284700 25.444815 59.056930 -39.152794 8.982953 
-1.984808 0.612015 0.974952 104.614389 -3.464129 82.418186 0.701350 -2.674412 -14.435969 -8.730692 -0.631875 30.030858 5.439872 8.123050 -15.425194 0.000000 -0.000000 0.000000 0.745041 -13.531500 8.236583 -5.361618 -12.582860 15.980117 0.643304 -19.826087 -22.759657 0.000000 -0.000000 0.000000 -2.490033 10.515462 9.901883 -1.485074 -1.424280 -2.054861 -0.009888 5.720782 1.530007 -8.186749 -10.392330 7.976275 13.534533 -13.361236 -0.247646 6.168321 -17.936344 -20.160391 -21.401257 -43.910948 -10.160882 59.180389 -44.099329 -37.601699 12.674708 4.249510 14.607569 10.644703 19.497617 -0.892488 52.211366 6.669584 9.955692 -17.242562 33.418369 26.485659 60.896839 -39.996778 10.042294 
-1.990030 0.606306 0.974970 108.146448 -3.251937 82.275837 -0.211248 -3.506863 -15.011350 -7.577589 -1.599985 30.101223 5.422109 6.858394 -15.655865 0.000000 -0.000000 0.000000 1.276637 -15.174175 7.638198 -5.865320 -13.899580 16.789532 0.685314 -19.346107 -22.653844 0.000000 -0.000000 0.000000 -3.209632 10.894688 8.622546 -1.486753 -1.212660 -1.723997 0.203256 5.835110 1.728377 -7.232243 -13.344917 9.570226 14.574586 -15.170639 1.443658 3.833576 -17.455296 -19.091772 -29.664065 -45.779488 -3.807104 71.724427 -54.367113 -42.902081 12.842766 2.631277 12.932281 12.150314 19.402607 -0.185991 55.785909 6.944657 9.992130 -16.440192 35.090207 28.273307 61.936714 -39.684655 9.831856 
-1.993462 0.602005 0.974363 111.411766 -3.061810 82.390427 -0.577222 -5.516949 -15.791887 -6.667127 -1.909712 29.945950 5.494765 5.877668 -15.168638 0.000000 -0.000000 0.000000 2.122177 -15.638377 7.428609 -6.268912 -16.570092 16.389230 0.553345 -19.130698 -22.407866 0.000000 -0.000000 0.000000 -4.424432 11.208138 6.923317 -1.169416 -1.022220 -1.165624 0.240394 5.949406 1.519560 -6.091989 -15.753504 11.391589 15.342915 -17.659256 2.819832 1.500628 -16.347013 -17.760178 -38.394687 -46.959925 4.402566 85.923183 -63.012068 -52.505721 11.507973 0.511101 11.140294 13.538361 18.932325 0.847830 59.095057 5.993868 11.753399 -15.610640 36.833550 30.098339 59.542734 -38.108808 11.065954 
-1.996761 0.599166 0.973276 113.849228 -3.080035 82.359669 -0.844379 -7.643160 -16.398338 -6.122369 -1.622794 29.691394 5.995679 5.068096 -14.755564 0.000000 -0.000000 0.000000 2.738074 -15.401436 7.434864 -6.784140 -19.465515 15.958286 0.672650 -18.867745 -22.827830 0.000000 -0.000000 0.000000 -5.718111 12.019876 5.769545 -0.888336 -0.591040 -0.813281 0.219739 5.934634 1.076807 -4.529099 -17.707116 13.061592 15.690052 -20.867933 3.660701 -0.089211 -15.245640 -16.065230 -46.749920 -47.031171 12.993008 102.849310 -69.893637 -66.966233 11.266156 -1.819411 8.489241 14.747309 17.698151 1.642767 62.146272 4.251057 13.194534 -14.737619 38.340057 30.589470 53.165201 -34.307037 13.703043 
